<?xml version="1.0" standalone="no"?>
<svg xmlns="http://www.w3.org/2000/svg" version="1.1" viewBox="0 0 512 512">
  <defs><path id="qrmodule" d="M0 0 h17.655172413793103 v17.655172413793103 H0 z" style="fill:#000000;shape-rendering:crispEdges;"/></defs>
  <rect x="0" y="0" width="512" height="512" style="fill:#ffffff;shape-rendering:crispEdges;"/>
  <path x="0" y="0" style="fill:#000000;shape-rendering:crispEdges;" d="M0,0 V17.66 H17.66 V0 H0 Z M17.66,0 V17.66 H35.31 V0 H17.66 Z M35.31,0 V17.66 H52.97 V0 H35.31 Z M52.97,0 V17.66 H70.62 V0 H52.97 Z M70.62,0 V17.66 H88.28 V0 H70.62 Z M88.28,0 V17.66 H105.93 V0 H88.28 Z M105.93,0 V17.66 H123.59 V0 H105.93 Z M141.24,0 V17.66 H158.90 V0 H141.24 Z M176.55,0 V17.66 H194.21 V0 H176.55 Z M194.21,0 V17.66 H211.86 V0 H194.21 Z M211.86,0 V17.66 H229.52 V0 H211.86 Z M247.17,0 V17.66 H264.83 V0 H247.17 Z M282.48,0 V17.66 H300.14 V0 H282.48 Z M317.79,0 V17.66 H335.45 V0 H317.79 Z M353.10,0 V17.66 H370.76 V0 H353.10 Z M388.41,0 V17.66 H406.07 V0 H388.41 Z M406.07,0 V17.66 H423.72 V0 H406.07 Z M423.72,0 V17.66 H441.38 V0 H423.72 Z M441.38,0 V17.66 H459.03 V0 H441.38 Z M459.03,0 V17.66 H476.69 V0 H459.03 Z M476.69,0 V17.66 H494.34 V0 H476.69 Z M494.34,0 V17.66 H512.00 V0 H494.34 Z M0,17.66 V35.31 H17.66 V17.66 H0 Z M105.93,17.66 V35.31 H123.59 V17.66 H105.93 Z M141.24,17.66 V35.31 H158.90 V17.66 H141.24 Z M158.90,17.66 V35.31 H176.55 V17.66 H158.90 Z M176.55,17.66 V35.31 H194.21 V17.66 H176.55 Z M229.52,17.66 V35.31 H247.17 V17.66 H229.52 Z M300.14,17.66 V35.31 H317.79 V17.66 H300.14 Z M388.41,17.66 V35.31 H406.07 V17.66 H388.41 Z M494.34,17.66 V35.31 H512.00 V17.66 H494.34 Z M0,35.31 V52.97 H17.66 V35.31 H0 Z M35.31,35.31 V52.97 H52.97 V35.31 H35.31 Z M52.97,35.31 V52.97 H70.62 V35.31 H52.97 Z M70.62,35.31 V52.97 H88.28 V35.31 H70.62 Z M105.93,35.31 V52.97 H123.59 V35.31 H105.93 Z M158.90,35.31 V52.97 H176.55 V35.31 H158.90 Z M176.55,35.31 V52.97 H194.21 V35.31 H176.55 Z M194.21,35.31 V52.97 H211.86 V35.31 H194.21 Z M229.52,35.31 V52.97 H247.17 V35.31 H229.52 Z M247.17,35.31 V52.97 H264.83 V35.31 H247.17 Z M282.48,35.31 V52.97 H300.14 V35.31 H282.48 Z M300.14,35.31 V52.97 H317.79 V35.31 H300.14 Z M317.79,35.31 V52.97 H335.45 V35.31 H317.79 Z M335.45,35.31 V52.97 H353.10 V35.31 H335.45 Z M388.41,35.31 V52.97 H406.07 V35.31 H388.41 Z M423.72,35.31 V52.97 H441.38 V35.31 H423.72 Z M441.38,35.31 V52.97 H459.03 V35.31 H441.38 Z M459.03,35.31 V52.97 H476.69 V35.31 H459.03 Z M494.34,35.31 V52.97 H512.00 V35.31 H494.34 Z M0,52.97 V70.62 H17.66 V52.97 H0 Z M35.31,52.97 V70.62 H52.97 V52.97 H35.31 Z M52.97,52.97 V70.62 H70.62 V52.97 H52.97 Z M70.62,52.97 V70.62 H88.28 V52.97 H70.62 Z M105.93,52.97 V70.62 H123.59 V52.97 H105.93 Z M141.24,52.97 V70.62 H158.90 V52.97 H141.24 Z M158.90,52.97 V70.62 H176.55 V52.97 H158.90 Z M176.55,52.97 V70.62 H194.21 V52.97 H176.55 Z M247.17,52.97 V70.62 H264.83 V52.97 H247.17 Z M264.83,52.97 V70.62 H282.48 V52.97 H264.83 Z M317.79,52.97 V70.62 H335.45 V52.97 H317.79 Z M335.45,52.97 V70.62 H353.10 V52.97 H335.45 Z M388.41,52.97 V70.62 H406.07 V52.97 H388.41 Z M423.72,52.97 V70.62 H441.38 V52.97 H423.72 Z M441.38,52.97 V70.62 H459.03 V52.97 H441.38 Z M459.03,52.97 V70.62 H476.69 V52.97 H459.03 Z M494.34,52.97 V70.62 H512.00 V52.97 H494.34 Z M0,70.62 V88.28 H17.66 V70.62 H0 Z M35.31,70.62 V88.28 H52.97 V70.62 H35.31 Z M52.97,70.62 V88.28 H70.62 V70.62 H52.97 Z M70.62,70.62 V88.28 H88.28 V70.62 H70.62 Z M105.93,70.62 V88.28 H123.59 V70.62 H105.93 Z M158.90,70.62 V88.28 H176.55 V70.62 H158.90 Z M176.55,70.62 V88.28 H194.21 V70.62 H176.55 Z M194.21,70.62 V88.28 H211.86 V70.62 H194.21 Z M211.86,70.62 V88.28 H229.52 V70.62 H211.86 Z M229.52,70.62 V88.28 H247.17 V70.62 H229.52 Z M282.48,70.62 V88.28 H300.14 V70.62 H282.48 Z M353.10,70.62 V88.28 H370.76 V70.62 H353.10 Z M388.41,70.62 V88.28 H406.07 V70.62 H388.41 Z M423.72,70.62 V88.28 H441.38 V70.62 H423.72 Z M441.38,70.62 V88.28 H459.03 V70.62 H441.38 Z M459.03,70.62 V88.28 H476.69 V70.62 H459.03 Z M494.34,70.62 V88.28 H512.00 V70.62 H494.34 Z M0,88.28 V105.93 H17.66 V88.28 H0 Z M105.93,88.28 V105.93 H123.59 V88.28 H105.93 Z M158.90,88.28 V105.93 H176.55 V88.28 H158.90 Z M211.86,88.28 V105.93 H229.52 V88.28 H211.86 Z M247.17,88.28 V105.93 H264.83 V88.28 H247.17 Z M264.83,88.28 V105.93 H282.48 V88.28 H264.83 Z M300.14,88.28 V105.93 H317.79 V88.28 H300.14 Z M317.79,88.28 V105.93 H335.45 V88.28 H317.79 Z M335.45,88.28 V105.93 H353.10 V88.28 H335.45 Z M388.41,88.28 V105.93 H406.07 V88.28 H388.41 Z M494.34,88.28 V105.93 H512.00 V88.28 H494.34 Z M0,105.93 V123.59 H17.66 V105.93 H0 Z M17.66,105.93 V123.59 H35.31 V105.93 H17.66 Z M35.31,105.93 V123.59 H52.97 V105.93 H35.31 Z M52.97,105.93 V123.59 H70.62 V105.93 H52.97 Z M70.62,105.93 V123.59 H88.28 V105.93 H70.62 Z M88.28,105.93 V123.59 H105.93 V105.93 H88.28 Z M105.93,105.93 V123.59 H123.59 V105.93 H105.93 Z M141.24,105.93 V123.59 H158.90 V105.93 H141.24 Z M176.55,105.93 V123.59 H194.21 V105.93 H176.55 Z M211.86,105.93 V123.59 H229.52 V105.93 H211.86 Z M247.17,105.93 V123.59 H264.83 V105.93 H247.17 Z M282.48,105.93 V123.59 H300.14 V105.93 H282.48 Z M317.79,105.93 V123.59 H335.45 V105.93 H317.79 Z M353.10,105.93 V123.59 H370.76 V105.93 H353.10 Z M388.41,105.93 V123.59 H406.07 V105.93 H388.41 Z M406.07,105.93 V123.59 H423.72 V105.93 H406.07 Z M423.72,105.93 V123.59 H441.38 V105.93 H423.72 Z M441.38,105.93 V123.59 H459.03 V105.93 H441.38 Z M459.03,105.93 V123.59 H476.69 V105.93 H459.03 Z M476.69,105.93 V123.59 H494.34 V105.93 H476.69 Z M494.34,105.93 V123.59 H512.00 V105.93 H494.34 Z M141.24,123.59 V141.24 H158.90 V123.59 H141.24 Z M158.90,123.59 V141.24 H176.55 V123.59 H158.90 Z M176.55,123.59 V141.24 H194.21 V123.59 H176.55 Z M194.21,123.59 V141.24 H211.86 V123.59 H194.21 Z M229.52,123.59 V141.24 H247.17 V123.59 H229.52 Z M247.17,123.59 V141.24 H264.83 V123.59 H247.17 Z M264.83,123.59 V141.24 H282.48 V123.59 H264.83 Z M282.48,123.59 V141.24 H300.14 V123.59 H282.48 Z M317.79,123.59 V141.24 H335.45 V123.59 H317.79 Z M335.45,123.59 V141.24 H353.10 V123.59 H335.45 Z M17.66,141.24 V158.90 H35.31 V141.24 H17.66 Z M35.31,141.24 V158.90 H52.97 V141.24 H35.31 Z M70.62,141.24 V158.90 H88.28 V141.24 H70.62 Z M88.28,141.24 V158.90 H105.93 V141.24 H88.28 Z M105.93,141.24 V158.90 H123.59 V141.24 H105.93 Z M123.59,141.24 V158.90 H141.24 V141.24 H123.59 Z M194.21,141.24 V158.90 H211.86 V141.24 H194.21 Z M229.52,141.24 V158.90 H247.17 V141.24 H229.52 Z M317.79,141.24 V158.90 H335.45 V141.24 H317.79 Z M335.45,141.24 V158.90 H353.10 V141.24 H335.45 Z M353.10,141.24 V158.90 H370.76 V141.24 H353.10 Z M370.76,141.24 V158.90 H388.41 V141.24 H370.76 Z M388.41,141.24 V158.90 H406.07 V141.24 H388.41 Z M441.38,141.24 V158.90 H459.03 V141.24 H441.38 Z M476.69,141.24 V158.90 H494.34 V141.24 H476.69 Z M494.34,141.24 V158.90 H512.00 V141.24 H494.34 Z M17.66,158.90 V176.55 H35.31 V158.90 H17.66 Z M52.97,158.90 V176.55 H70.62 V158.90 H52.97 Z M70.62,158.90 V176.55 H88.28 V158.90 H70.62 Z M158.90,158.90 V176.55 H176.55 V158.90 H158.90 Z M194.21,158.90 V176.55 H211.86 V158.90 H194.21 Z M229.52,158.90 V176.55 H247.17 V158.90 H229.52 Z M335.45,158.90 V176.55 H353.10 V158.90 H335.45 Z M370.76,158.90 V176.55 H388.41 V158.90 H370.76 Z M441.38,158.90 V176.55 H459.03 V158.90 H441.38 Z M476.69,158.90 V176.55 H494.34 V158.90 H476.69 Z M494.34,158.90 V176.55 H512.00 V158.90 H494.34 Z M0,176.55 V194.21 H17.66 V176.55 H0 Z M17.66,176.55 V194.21 H35.31 V176.55 H17.66 Z M70.62,176.55 V194.21 H88.28 V176.55 H70.62 Z M88.28,176.55 V194.21 H105.93 V176.55 H88.28 Z M105.93,176.55 V194.21 H123.59 V176.55 H105.93 Z M123.59,176.55 V194.21 H141.24 V176.55 H123.59 Z M194.21,176.55 V194.21 H211.86 V176.55 H194.21 Z M211.86,176.55 V194.21 H229.52 V176.55 H211.86 Z M282.48,176.55 V194.21 H300.14 V176.55 H282.48 Z M370.76,176.55 V194.21 H388.41 V176.55 H370.76 Z M388.41,176.55 V194.21 H406.07 V176.55 H388.41 Z M406.07,176.55 V194.21 H423.72 V176.55 H406.07 Z M459.03,176.55 V194.21 H476.69 V176.55 H459.03 Z M476.69,176.55 V194.21 H494.34 V176.55 H476.69 Z M123.59,194.21 V211.86 H141.24 V194.21 H123.59 Z M141.24,194.21 V211.86 H158.90 V194.21 H141.24 Z M158.90,194.21 V211.86 H176.55 V194.21 H158.90 Z M176.55,194.21 V211.86 H194.21 V194.21 H176.55 Z M194.21,194.21 V211.86 H211.86 V194.21 H194.21 Z M211.86,194.21 V211.86 H229.52 V194.21 H211.86 Z M229.52,194.21 V211.86 H247.17 V194.21 H229.52 Z M247.17,194.21 V211.86 H264.83 V194.21 H247.17 Z M264.83,194.21 V211.86 H282.48 V194.21 H264.83 Z M317.79,194.21 V211.86 H335.45 V194.21 H317.79 Z M370.76,194.21 V211.86 H388.41 V194.21 H370.76 Z M441.38,194.21 V211.86 H459.03 V194.21 H441.38 Z M494.34,194.21 V211.86 H512.00 V194.21 H494.34 Z M52.97,211.86 V229.52 H70.62 V211.86 H52.97 Z M70.62,211.86 V229.52 H88.28 V211.86 H70.62 Z M88.28,211.86 V229.52 H105.93 V211.86 H88.28 Z M105.93,211.86 V229.52 H123.59 V211.86 H105.93 Z M141.24,211.86 V229.52 H158.90 V211.86 H141.24 Z M158.90,211.86 V229.52 H176.55 V211.86 H158.90 Z M176.55,211.86 V229.52 H194.21 V211.86 H176.55 Z M194.21,211.86 V229.52 H211.86 V211.86 H194.21 Z M282.48,211.86 V229.52 H300.14 V211.86 H282.48 Z M300.14,211.86 V229.52 H317.79 V211.86 H300.14 Z M317.79,211.86 V229.52 H335.45 V211.86 H317.79 Z M335.45,211.86 V229.52 H353.10 V211.86 H335.45 Z M423.72,211.86 V229.52 H441.38 V211.86 H423.72 Z M441.38,211.86 V229.52 H459.03 V211.86 H441.38 Z M459.03,211.86 V229.52 H476.69 V211.86 H459.03 Z M476.69,211.86 V229.52 H494.34 V211.86 H476.69 Z M17.66,229.52 V247.17 H35.31 V229.52 H17.66 Z M52.97,229.52 V247.17 H70.62 V229.52 H52.97 Z M123.59,229.52 V247.17 H141.24 V229.52 H123.59 Z M158.90,229.52 V247.17 H176.55 V229.52 H158.90 Z M176.55,229.52 V247.17 H194.21 V229.52 H176.55 Z M194.21,229.52 V247.17 H211.86 V229.52 H194.21 Z M229.52,229.52 V247.17 H247.17 V229.52 H229.52 Z M247.17,229.52 V247.17 H264.83 V229.52 H247.17 Z M282.48,229.52 V247.17 H300.14 V229.52 H282.48 Z M300.14,229.52 V247.17 H317.79 V229.52 H300.14 Z M476.69,229.52 V247.17 H494.34 V229.52 H476.69 Z M494.34,229.52 V247.17 H512.00 V229.52 H494.34 Z M0,247.17 V264.83 H17.66 V247.17 H0 Z M17.66,247.17 V264.83 H35.31 V247.17 H17.66 Z M70.62,247.17 V264.83 H88.28 V247.17 H70.62 Z M105.93,247.17 V264.83 H123.59 V247.17 H105.93 Z M141.24,247.17 V264.83 H158.90 V247.17 H141.24 Z M176.55,247.17 V264.83 H194.21 V247.17 H176.55 Z M211.86,247.17 V264.83 H229.52 V247.17 H211.86 Z M229.52,247.17 V264.83 H247.17 V247.17 H229.52 Z M247.17,247.17 V264.83 H264.83 V247.17 H247.17 Z M300.14,247.17 V264.83 H317.79 V247.17 H300.14 Z M317.79,247.17 V264.83 H335.45 V247.17 H317.79 Z M335.45,247.17 V264.83 H353.10 V247.17 H335.45 Z M370.76,247.17 V264.83 H388.41 V247.17 H370.76 Z M406.07,247.17 V264.83 H423.72 V247.17 H406.07 Z M476.69,247.17 V264.83 H494.34 V247.17 H476.69 Z M494.34,247.17 V264.83 H512.00 V247.17 H494.34 Z M0,264.83 V282.48 H17.66 V264.83 H0 Z M17.66,264.83 V282.48 H35.31 V264.83 H17.66 Z M35.31,264.83 V282.48 H52.97 V264.83 H35.31 Z M70.62,264.83 V282.48 H88.28 V264.83 H70.62 Z M88.28,264.83 V282.48 H105.93 V264.83 H88.28 Z M158.90,264.83 V282.48 H176.55 V264.83 H158.90 Z M282.48,264.83 V282.48 H300.14 V264.83 H282.48 Z M370.76,264.83 V282.48 H388.41 V264.83 H370.76 Z M423.72,264.83 V282.48 H441.38 V264.83 H423.72 Z M476.69,264.83 V282.48 H494.34 V264.83 H476.69 Z M494.34,264.83 V282.48 H512.00 V264.83 H494.34 Z M17.66,282.48 V300.14 H35.31 V282.48 H17.66 Z M35.31,282.48 V300.14 H52.97 V282.48 H35.31 Z M70.62,282.48 V300.14 H88.28 V282.48 H70.62 Z M88.28,282.48 V300.14 H105.93 V282.48 H88.28 Z M105.93,282.48 V300.14 H123.59 V282.48 H105.93 Z M141.24,282.48 V300.14 H158.90 V282.48 H141.24 Z M158.90,282.48 V300.14 H176.55 V282.48 H158.90 Z M176.55,282.48 V300.14 H194.21 V282.48 H176.55 Z M194.21,282.48 V300.14 H211.86 V282.48 H194.21 Z M211.86,282.48 V300.14 H229.52 V282.48 H211.86 Z M247.17,282.48 V300.14 H264.83 V282.48 H247.17 Z M282.48,282.48 V300.14 H300.14 V282.48 H282.48 Z M300.14,282.48 V300.14 H317.79 V282.48 H300.14 Z M317.79,282.48 V300.14 H335.45 V282.48 H317.79 Z M370.76,282.48 V300.14 H388.41 V282.48 H370.76 Z M388.41,282.48 V300.14 H406.07 V282.48 H388.41 Z M423.72,282.48 V300.14 H441.38 V282.48 H423.72 Z M459.03,282.48 V300.14 H476.69 V282.48 H459.03 Z M476.69,282.48 V300.14 H494.34 V282.48 H476.69 Z M0,300.14 V317.79 H17.66 V300.14 H0 Z M35.31,300.14 V317.79 H52.97 V300.14 H35.31 Z M70.62,300.14 V317.79 H88.28 V300.14 H70.62 Z M123.59,300.14 V317.79 H141.24 V300.14 H123.59 Z M176.55,300.14 V317.79 H194.21 V300.14 H176.55 Z M211.86,300.14 V317.79 H229.52 V300.14 H211.86 Z M229.52,300.14 V317.79 H247.17 V300.14 H229.52 Z M264.83,300.14 V317.79 H282.48 V300.14 H264.83 Z M282.48,300.14 V317.79 H300.14 V300.14 H282.48 Z M300.14,300.14 V317.79 H317.79 V300.14 H300.14 Z M317.79,300.14 V317.79 H335.45 V300.14 H317.79 Z M335.45,300.14 V317.79 H353.10 V300.14 H335.45 Z M388.41,300.14 V317.79 H406.07 V300.14 H388.41 Z M441.38,300.14 V317.79 H459.03 V300.14 H441.38 Z M459.03,300.14 V317.79 H476.69 V300.14 H459.03 Z M476.69,300.14 V317.79 H494.34 V300.14 H476.69 Z M0,317.79 V335.45 H17.66 V317.79 H0 Z M17.66,317.79 V335.45 H35.31 V317.79 H17.66 Z M52.97,317.79 V335.45 H70.62 V317.79 H52.97 Z M70.62,317.79 V335.45 H88.28 V317.79 H70.62 Z M88.28,317.79 V335.45 H105.93 V317.79 H88.28 Z M105.93,317.79 V335.45 H123.59 V317.79 H105.93 Z M123.59,317.79 V335.45 H141.24 V317.79 H123.59 Z M141.24,317.79 V335.45 H158.90 V317.79 H141.24 Z M194.21,317.79 V335.45 H211.86 V317.79 H194.21 Z M229.52,317.79 V335.45 H247.17 V317.79 H229.52 Z M247.17,317.79 V335.45 H264.83 V317.79 H247.17 Z M282.48,317.79 V335.45 H300.14 V317.79 H282.48 Z M335.45,317.79 V335.45 H353.10 V317.79 H335.45 Z M370.76,317.79 V335.45 H388.41 V317.79 H370.76 Z M388.41,317.79 V335.45 H406.07 V317.79 H388.41 Z M441.38,317.79 V335.45 H459.03 V317.79 H441.38 Z M459.03,317.79 V335.45 H476.69 V317.79 H459.03 Z M0,335.45 V353.10 H17.66 V335.45 H0 Z M35.31,335.45 V353.10 H52.97 V335.45 H35.31 Z M52.97,335.45 V353.10 H70.62 V335.45 H52.97 Z M88.28,335.45 V353.10 H105.93 V335.45 H88.28 Z M123.59,335.45 V353.10 H141.24 V335.45 H123.59 Z M141.24,335.45 V353.10 H158.90 V335.45 H141.24 Z M176.55,335.45 V353.10 H194.21 V335.45 H176.55 Z M194.21,335.45 V353.10 H211.86 V335.45 H194.21 Z M229.52,335.45 V353.10 H247.17 V335.45 H229.52 Z M282.48,335.45 V353.10 H300.14 V335.45 H282.48 Z M353.10,335.45 V353.10 H370.76 V335.45 H353.10 Z M370.76,335.45 V353.10 H388.41 V335.45 H370.76 Z M459.03,335.45 V353.10 H476.69 V335.45 H459.03 Z M476.69,335.45 V353.10 H494.34 V335.45 H476.69 Z M17.66,353.10 V370.76 H35.31 V353.10 H17.66 Z M88.28,353.10 V370.76 H105.93 V353.10 H88.28 Z M105.93,353.10 V370.76 H123.59 V353.10 H105.93 Z M123.59,353.10 V370.76 H141.24 V353.10 H123.59 Z M211.86,353.10 V370.76 H229.52 V353.10 H211.86 Z M229.52,353.10 V370.76 H247.17 V353.10 H229.52 Z M247.17,353.10 V370.76 H264.83 V353.10 H247.17 Z M282.48,353.10 V370.76 H300.14 V353.10 H282.48 Z M353.10,353.10 V370.76 H370.76 V353.10 H353.10 Z M370.76,353.10 V370.76 H388.41 V353.10 H370.76 Z M388.41,353.10 V370.76 H406.07 V353.10 H388.41 Z M406.07,353.10 V370.76 H423.72 V353.10 H406.07 Z M423.72,353.10 V370.76 H441.38 V353.10 H423.72 Z M441.38,353.10 V370.76 H459.03 V353.10 H441.38 Z M476.69,353.10 V370.76 H494.34 V353.10 H476.69 Z M494.34,353.10 V370.76 H512.00 V353.10 H494.34 Z M229.52,370.76 V388.41 H247.17 V370.76 H229.52 Z M247.17,370.76 V388.41 H264.83 V370.76 H247.17 Z M264.83,370.76 V388.41 H282.48 V370.76 H264.83 Z M282.48,370.76 V388.41 H300.14 V370.76 H282.48 Z M300.14,370.76 V388.41 H317.79 V370.76 H300.14 Z M317.79,370.76 V388.41 H335.45 V370.76 H317.79 Z M353.10,370.76 V388.41 H370.76 V370.76 H353.10 Z M423.72,370.76 V388.41 H441.38 V370.76 H423.72 Z M0,388.41 V406.07 H17.66 V388.41 H0 Z M17.66,388.41 V406.07 H35.31 V388.41 H17.66 Z M35.31,388.41 V406.07 H52.97 V388.41 H35.31 Z M52.97,388.41 V406.07 H70.62 V388.41 H52.97 Z M70.62,388.41 V406.07 H88.28 V388.41 H70.62 Z M88.28,388.41 V406.07 H105.93 V388.41 H88.28 Z M105.93,388.41 V406.07 H123.59 V388.41 H105.93 Z M141.24,388.41 V406.07 H158.90 V388.41 H141.24 Z M158.90,388.41 V406.07 H176.55 V388.41 H158.90 Z M194.21,388.41 V406.07 H211.86 V388.41 H194.21 Z M211.86,388.41 V406.07 H229.52 V388.41 H211.86 Z M264.83,388.41 V406.07 H282.48 V388.41 H264.83 Z M300.14,388.41 V406.07 H317.79 V388.41 H300.14 Z M353.10,388.41 V406.07 H370.76 V388.41 H353.10 Z M388.41,388.41 V406.07 H406.07 V388.41 H388.41 Z M423.72,388.41 V406.07 H441.38 V388.41 H423.72 Z M441.38,388.41 V406.07 H459.03 V388.41 H441.38 Z M494.34,388.41 V406.07 H512.00 V388.41 H494.34 Z M0,406.07 V423.72 H17.66 V406.07 H0 Z M105.93,406.07 V423.72 H123.59 V406.07 H105.93 Z M141.24,406.07 V423.72 H158.90 V406.07 H141.24 Z M176.55,406.07 V423.72 H194.21 V406.07 H176.55 Z M194.21,406.07 V423.72 H211.86 V406.07 H194.21 Z M247.17,406.07 V423.72 H264.83 V406.07 H247.17 Z M264.83,406.07 V423.72 H282.48 V406.07 H264.83 Z M282.48,406.07 V423.72 H300.14 V406.07 H282.48 Z M300.14,406.07 V423.72 H317.79 V406.07 H300.14 Z M317.79,406.07 V423.72 H335.45 V406.07 H317.79 Z M353.10,406.07 V423.72 H370.76 V406.07 H353.10 Z M423.72,406.07 V423.72 H441.38 V406.07 H423.72 Z M441.38,406.07 V423.72 H459.03 V406.07 H441.38 Z M476.69,406.07 V423.72 H494.34 V406.07 H476.69 Z M494.34,406.07 V423.72 H512.00 V406.07 H494.34 Z M0,423.72 V441.38 H17.66 V423.72 H0 Z M35.31,423.72 V441.38 H52.97 V423.72 H35.31 Z M52.97,423.72 V441.38 H70.62 V423.72 H52.97 Z M70.62,423.72 V441.38 H88.28 V423.72 H70.62 Z M105.93,423.72 V441.38 H123.59 V423.72 H105.93 Z M141.24,423.72 V441.38 H158.90 V423.72 H141.24 Z M176.55,423.72 V441.38 H194.21 V423.72 H176.55 Z M194.21,423.72 V441.38 H211.86 V423.72 H194.21 Z M335.45,423.72 V441.38 H353.10 V423.72 H335.45 Z M353.10,423.72 V441.38 H370.76 V423.72 H353.10 Z M370.76,423.72 V441.38 H388.41 V423.72 H370.76 Z M388.41,423.72 V441.38 H406.07 V423.72 H388.41 Z M406.07,423.72 V441.38 H423.72 V423.72 H406.07 Z M423.72,423.72 V441.38 H441.38 V423.72 H423.72 Z M441.38,423.72 V441.38 H459.03 V423.72 H441.38 Z M459.03,423.72 V441.38 H476.69 V423.72 H459.03 Z M476.69,423.72 V441.38 H494.34 V423.72 H476.69 Z M494.34,423.72 V441.38 H512.00 V423.72 H494.34 Z M0,441.38 V459.03 H17.66 V441.38 H0 Z M35.31,441.38 V459.03 H52.97 V441.38 H35.31 Z M52.97,441.38 V459.03 H70.62 V441.38 H52.97 Z M70.62,441.38 V459.03 H88.28 V441.38 H70.62 Z M105.93,441.38 V459.03 H123.59 V441.38 H105.93 Z M158.90,441.38 V459.03 H176.55 V441.38 H158.90 Z M176.55,441.38 V459.03 H194.21 V441.38 H176.55 Z M211.86,441.38 V459.03 H229.52 V441.38 H211.86 Z M247.17,441.38 V459.03 H264.83 V441.38 H247.17 Z M264.83,441.38 V459.03 H282.48 V441.38 H264.83 Z M300.14,441.38 V459.03 H317.79 V441.38 H300.14 Z M406.07,441.38 V459.03 H423.72 V441.38 H406.07 Z M441.38,441.38 V459.03 H459.03 V441.38 H441.38 Z M459.03,441.38 V459.03 H476.69 V441.38 H459.03 Z M494.34,441.38 V459.03 H512.00 V441.38 H494.34 Z M0,459.03 V476.69 H17.66 V459.03 H0 Z M35.31,459.03 V476.69 H52.97 V459.03 H35.31 Z M52.97,459.03 V476.69 H70.62 V459.03 H52.97 Z M70.62,459.03 V476.69 H88.28 V459.03 H70.62 Z M105.93,459.03 V476.69 H123.59 V459.03 H105.93 Z M141.24,459.03 V476.69 H158.90 V459.03 H141.24 Z M176.55,459.03 V476.69 H194.21 V459.03 H176.55 Z M194.21,459.03 V476.69 H211.86 V459.03 H194.21 Z M247.17,459.03 V476.69 H264.83 V459.03 H247.17 Z M353.10,459.03 V476.69 H370.76 V459.03 H353.10 Z M370.76,459.03 V476.69 H388.41 V459.03 H370.76 Z M406.07,459.03 V476.69 H423.72 V459.03 H406.07 Z M441.38,459.03 V476.69 H459.03 V459.03 H441.38 Z M459.03,459.03 V476.69 H476.69 V459.03 H459.03 Z M0,476.69 V494.34 H17.66 V476.69 H0 Z M105.93,476.69 V494.34 H123.59 V476.69 H105.93 Z M141.24,476.69 V494.34 H158.90 V476.69 H141.24 Z M176.55,476.69 V494.34 H194.21 V476.69 H176.55 Z M194.21,476.69 V494.34 H211.86 V476.69 H194.21 Z M211.86,476.69 V494.34 H229.52 V476.69 H211.86 Z M247.17,476.69 V494.34 H264.83 V476.69 H247.17 Z M264.83,476.69 V494.34 H282.48 V476.69 H264.83 Z M282.48,476.69 V494.34 H300.14 V476.69 H282.48 Z M317.79,476.69 V494.34 H335.45 V476.69 H317.79 Z M335.45,476.69 V494.34 H353.10 V476.69 H335.45 Z M370.76,476.69 V494.34 H388.41 V476.69 H370.76 Z M388.41,476.69 V494.34 H406.07 V476.69 H388.41 Z M423.72,476.69 V494.34 H441.38 V476.69 H423.72 Z M441.38,476.69 V494.34 H459.03 V476.69 H441.38 Z M476.69,476.69 V494.34 H494.34 V476.69 H476.69 Z M494.34,476.69 V494.34 H512.00 V476.69 H494.34 Z M0,494.34 V512.00 H17.66 V494.34 H0 Z M17.66,494.34 V512.00 H35.31 V494.34 H17.66 Z M35.31,494.34 V512.00 H52.97 V494.34 H35.31 Z M52.97,494.34 V512.00 H70.62 V494.34 H52.97 Z M70.62,494.34 V512.00 H88.28 V494.34 H70.62 Z M88.28,494.34 V512.00 H105.93 V494.34 H88.28 Z M105.93,494.34 V512.00 H123.59 V494.34 H105.93 Z M158.90,494.34 V512.00 H176.55 V494.34 H158.90 Z M211.86,494.34 V512.00 H229.52 V494.34 H211.86 Z M247.17,494.34 V512.00 H264.83 V494.34 H247.17 Z M300.14,494.34 V512.00 H317.79 V494.34 H300.14 Z M317.79,494.34 V512.00 H335.45 V494.34 H317.79 Z M335.45,494.34 V512.00 H353.10 V494.34 H335.45 Z M370.76,494.34 V512.00 H388.41 V494.34 H370.76 Z M423.72,494.34 V512.00 H441.38 V494.34 H423.72 Z M459.03,494.34 V512.00 H476.69 V494.34 H459.03 Z "/></svg>