<?xml version="1.0" standalone="no"?>
<svg xmlns="http://www.w3.org/2000/svg" version="1.1" viewBox="0 0 512 512">
  <defs><path id="qrmodule" d="M0 0 h20.48 v20.48 H0 z" style="fill:#000000;shape-rendering:crispEdges;"/></defs>
  <rect x="0" y="0" width="512" height="512" style="fill:#ffffff;shape-rendering:crispEdges;"/>
  <path x="0" y="0" style="fill:#000000;shape-rendering:crispEdges;" d="M0,0 V20.48 H20.48 V0 H0 Z M20.48,0 V20.48 H40.96 V0 H20.48 Z M40.96,0 V20.48 H61.44 V0 H40.96 Z M61.44,0 V20.48 H81.92 V0 H61.44 Z M81.92,0 V20.48 H102.40 V0 H81.92 Z M102.40,0 V20.48 H122.88 V0 H102.40 Z M122.88,0 V20.48 H143.36 V0 H122.88 Z M163.84,0 V20.48 H184.32 V0 H163.84 Z M184.32,0 V20.48 H204.80 V0 H184.32 Z M286.72,0 V20.48 H307.20 V0 H286.72 Z M327.68,0 V20.48 H348.16 V0 H327.68 Z M368.64,0 V20.48 H389.12 V0 H368.64 Z M389.12,0 V20.48 H409.60 V0 H389.12 Z M409.60,0 V20.48 H430.08 V0 H409.60 Z M430.08,0 V20.48 H450.56 V0 H430.08 Z M450.56,0 V20.48 H471.04 V0 H450.56 Z M471.04,0 V20.48 H491.52 V0 H471.04 Z M491.52,0 V20.48 H512 V0 H491.52 Z M0,20.48 V40.96 H20.48 V20.48 H0 Z M122.88,20.48 V40.96 H143.36 V20.48 H122.88 Z M163.84,20.48 V40.96 H184.32 V20.48 H163.84 Z M266.24,20.48 V40.96 H286.72 V20.48 H266.24 Z M307.20,20.48 V40.96 H327.68 V20.48 H307.20 Z M368.64,20.48 V40.96 H389.12 V20.48 H368.64 Z M491.52,20.48 V40.96 H512 V20.48 H491.52 Z M0,40.96 V61.44 H20.48 V40.96 H0 Z M40.96,40.96 V61.44 H61.44 V40.96 H40.96 Z M61.44,40.96 V61.44 H81.92 V40.96 H61.44 Z M81.92,40.96 V61.44 H102.40 V40.96 H81.92 Z M122.88,40.96 V61.44 H143.36 V40.96 H122.88 Z M163.84,40.96 V61.44 H184.32 V40.96 H163.84 Z M184.32,40.96 V61.44 H204.80 V40.96 H184.32 Z M204.80,40.96 V61.44 H225.28 V40.96 H204.80 Z M225.28,40.96 V61.44 H245.76 V40.96 H225.28 Z M245.76,40.96 V61.44 H266.24 V40.96 H245.76 Z M266.24,40.96 V61.44 H286.72 V40.96 H266.24 Z M307.20,40.96 V61.44 H327.68 V40.96 H307.20 Z M327.68,40.96 V61.44 H348.16 V40.96 H327.68 Z M368.64,40.96 V61.44 H389.12 V40.96 H368.64 Z M409.60,40.96 V61.44 H430.08 V40.96 H409.60 Z M430.08,40.96 V61.44 H450.56 V40.96 H430.08 Z M450.56,40.96 V61.44 H471.04 V40.96 H450.56 Z M491.52,40.96 V61.44 H512 V40.96 H491.52 Z M0,61.44 V81.92 H20.48 V61.44 H0 Z M40.96,61.44 V81.92 H61.44 V61.44 H40.96 Z M61.44,61.44 V81.92 H81.92 V61.44 H61.44 Z M81.92,61.44 V81.92 H102.40 V61.44 H81.92 Z M122.88,61.44 V81.92 H143.36 V61.44 H122.88 Z M184.32,61.44 V81.92 H204.80 V61.44 H184.32 Z M204.80,61.44 V81.92 H225.28 V61.44 H204.80 Z M245.76,61.44 V81.92 H266.24 V61.44 H245.76 Z M266.24,61.44 V81.92 H286.72 V61.44 H266.24 Z M327.68,61.44 V81.92 H348.16 V61.44 H327.68 Z M368.64,61.44 V81.92 H389.12 V61.44 H368.64 Z M409.60,61.44 V81.92 H430.08 V61.44 H409.60 Z M430.08,61.44 V81.92 H450.56 V61.44 H430.08 Z M450.56,61.44 V81.92 H471.04 V61.44 H450.56 Z M491.52,61.44 V81.92 H512 V61.44 H491.52 Z M0,81.92 V102.40 H20.48 V81.92 H0 Z M40.96,81.92 V102.40 H61.44 V81.92 H40.96 Z M61.44,81.92 V102.40 H81.92 V81.92 H61.44 Z M81.92,81.92 V102.40 H102.40 V81.92 H81.92 Z M122.88,81.92 V102.40 H143.36 V81.92 H122.88 Z M163.84,81.92 V102.40 H184.32 V81.92 H163.84 Z M245.76,81.92 V102.40 H266.24 V81.92 H245.76 Z M286.72,81.92 V102.40 H307.20 V81.92 H286.72 Z M368.64,81.92 V102.40 H389.12 V81.92 H368.64 Z M409.60,81.92 V102.40 H430.08 V81.92 H409.60 Z M430.08,81.92 V102.40 H450.56 V81.92 H430.08 Z M450.56,81.92 V102.40 H471.04 V81.92 H450.56 Z M491.52,81.92 V102.40 H512 V81.92 H491.52 Z M0,102.40 V122.88 H20.48 V102.40 H0 Z M122.88,102.40 V122.88 H143.36 V102.40 H122.88 Z M163.84,102.40 V122.88 H184.32 V102.40 H163.84 Z M184.32,102.40 V122.88 H204.80 V102.40 H184.32 Z M225.28,102.40 V122.88 H245.76 V102.40 H225.28 Z M266.24,102.40 V122.88 H286.72 V102.40 H266.24 Z M286.72,102.40 V122.88 H307.20 V102.40 H286.72 Z M368.64,102.40 V122.88 H389.12 V102.40 H368.64 Z M491.52,102.40 V122.88 H512 V102.40 H491.52 Z M0,122.88 V143.36 H20.48 V122.88 H0 Z M20.48,122.88 V143.36 H40.96 V122.88 H20.48 Z M40.96,122.88 V143.36 H61.44 V122.88 H40.96 Z M61.44,122.88 V143.36 H81.92 V122.88 H61.44 Z M81.92,122.88 V143.36 H102.40 V122.88 H81.92 Z M102.40,122.88 V143.36 H122.88 V122.88 H102.40 Z M122.88,122.88 V143.36 H143.36 V122.88 H122.88 Z M163.84,122.88 V143.36 H184.32 V122.88 H163.84 Z M204.80,122.88 V143.36 H225.28 V122.88 H204.80 Z M245.76,122.88 V143.36 H266.24 V122.88 H245.76 Z M286.72,122.88 V143.36 H307.20 V122.88 H286.72 Z M327.68,122.88 V143.36 H348.16 V122.88 H327.68 Z M368.64,122.88 V143.36 H389.12 V122.88 H368.64 Z M389.12,122.88 V143.36 H409.60 V122.88 H389.12 Z M409.60,122.88 V143.36 H430.08 V122.88 H409.60 Z M430.08,122.88 V143.36 H450.56 V122.88 H430.08 Z M450.56,122.88 V143.36 H471.04 V122.88 H450.56 Z M471.04,122.88 V143.36 H491.52 V122.88 H471.04 Z M491.52,122.88 V143.36 H512 V122.88 H491.52 Z M163.84,143.36 V163.84 H184.32 V143.36 H163.84 Z M204.80,143.36 V163.84 H225.28 V143.36 H204.80 Z M266.24,143.36 V163.84 H286.72 V143.36 H266.24 Z M327.68,143.36 V163.84 H348.16 V143.36 H327.68 Z M40.96,163.84 V184.32 H61.44 V163.84 H40.96 Z M122.88,163.84 V184.32 H143.36 V163.84 H122.88 Z M143.36,163.84 V184.32 H163.84 V163.84 H143.36 Z M163.84,163.84 V184.32 H184.32 V163.84 H163.84 Z M225.28,163.84 V184.32 H245.76 V163.84 H225.28 Z M245.76,163.84 V184.32 H266.24 V163.84 H245.76 Z M266.24,163.84 V184.32 H286.72 V163.84 H266.24 Z M348.16,163.84 V184.32 H368.64 V163.84 H348.16 Z M368.64,163.84 V184.32 H389.12 V163.84 H368.64 Z M389.12,163.84 V184.32 H409.60 V163.84 H389.12 Z M409.60,163.84 V184.32 H430.08 V163.84 H409.60 Z M450.56,163.84 V184.32 H471.04 V163.84 H450.56 Z M471.04,163.84 V184.32 H491.52 V163.84 H471.04 Z M491.52,163.84 V184.32 H512 V163.84 H491.52 Z M0,184.32 V204.80 H20.48 V184.32 H0 Z M40.96,184.32 V204.80 H61.44 V184.32 H40.96 Z M61.44,184.32 V204.80 H81.92 V184.32 H61.44 Z M102.40,184.32 V204.80 H122.88 V184.32 H102.40 Z M143.36,184.32 V204.80 H163.84 V184.32 H143.36 Z M204.80,184.32 V204.80 H225.28 V184.32 H204.80 Z M266.24,184.32 V204.80 H286.72 V184.32 H266.24 Z M286.72,184.32 V204.80 H307.20 V184.32 H286.72 Z M307.20,184.32 V204.80 H327.68 V184.32 H307.20 Z M327.68,184.32 V204.80 H348.16 V184.32 H327.68 Z M368.64,184.32 V204.80 H389.12 V184.32 H368.64 Z M389.12,184.32 V204.80 H409.60 V184.32 H389.12 Z M409.60,184.32 V204.80 H430.08 V184.32 H409.60 Z M430.08,184.32 V204.80 H450.56 V184.32 H430.08 Z M20.48,204.80 V225.28 H40.96 V204.80 H20.48 Z M40.96,204.80 V225.28 H61.44 V204.80 H40.96 Z M61.44,204.80 V225.28 H81.92 V204.80 H61.44 Z M81.92,204.80 V225.28 H102.40 V204.80 H81.92 Z M122.88,204.80 V225.28 H143.36 V204.80 H122.88 Z M143.36,204.80 V225.28 H163.84 V204.80 H143.36 Z M163.84,204.80 V225.28 H184.32 V204.80 H163.84 Z M184.32,204.80 V225.28 H204.80 V204.80 H184.32 Z M307.20,204.80 V225.28 H327.68 V204.80 H307.20 Z M348.16,204.80 V225.28 H368.64 V204.80 H348.16 Z M368.64,204.80 V225.28 H389.12 V204.80 H368.64 Z M389.12,204.80 V225.28 H409.60 V204.80 H389.12 Z M409.60,204.80 V225.28 H430.08 V204.80 H409.60 Z M450.56,204.80 V225.28 H471.04 V204.80 H450.56 Z M491.52,204.80 V225.28 H512 V204.80 H491.52 Z M20.48,225.28 V245.76 H40.96 V225.28 H20.48 Z M61.44,225.28 V245.76 H81.92 V225.28 H61.44 Z M163.84,225.28 V245.76 H184.32 V225.28 H163.84 Z M184.32,225.28 V245.76 H204.80 V225.28 H184.32 Z M225.28,225.28 V245.76 H245.76 V225.28 H225.28 Z M266.24,225.28 V245.76 H286.72 V225.28 H266.24 Z M286.72,225.28 V245.76 H307.20 V225.28 H286.72 Z M327.68,225.28 V245.76 H348.16 V225.28 H327.68 Z M348.16,225.28 V245.76 H368.64 V225.28 H348.16 Z M389.12,225.28 V245.76 H409.60 V225.28 H389.12 Z M430.08,225.28 V245.76 H450.56 V225.28 H430.08 Z M450.56,225.28 V245.76 H471.04 V225.28 H450.56 Z M491.52,225.28 V245.76 H512 V225.28 H491.52 Z M0,245.76 V266.24 H20.48 V245.76 H0 Z M20.48,245.76 V266.24 H40.96 V245.76 H20.48 Z M40.96,245.76 V266.24 H61.44 V245.76 H40.96 Z M122.88,245.76 V266.24 H143.36 V245.76 H122.88 Z M143.36,245.76 V266.24 H163.84 V245.76 H143.36 Z M245.76,245.76 V266.24 H266.24 V245.76 H245.76 Z M266.24,245.76 V266.24 H286.72 V245.76 H266.24 Z M286.72,245.76 V266.24 H307.20 V245.76 H286.72 Z M307.20,245.76 V266.24 H327.68 V245.76 H307.20 Z M409.60,245.76 V266.24 H430.08 V245.76 H409.60 Z M430.08,245.76 V266.24 H450.56 V245.76 H430.08 Z M450.56,245.76 V266.24 H471.04 V245.76 H450.56 Z M471.04,245.76 V266.24 H491.52 V245.76 H471.04 Z M491.52,245.76 V266.24 H512 V245.76 H491.52 Z M20.48,266.24 V286.72 H40.96 V266.24 H20.48 Z M81.92,266.24 V286.72 H102.40 V266.24 H81.92 Z M102.40,266.24 V286.72 H122.88 V266.24 H102.40 Z M143.36,266.24 V286.72 H163.84 V266.24 H143.36 Z M163.84,266.24 V286.72 H184.32 V266.24 H163.84 Z M204.80,266.24 V286.72 H225.28 V266.24 H204.80 Z M225.28,266.24 V286.72 H245.76 V266.24 H225.28 Z M245.76,266.24 V286.72 H266.24 V266.24 H245.76 Z M266.24,266.24 V286.72 H286.72 V266.24 H266.24 Z M286.72,266.24 V286.72 H307.20 V266.24 H286.72 Z M307.20,266.24 V286.72 H327.68 V266.24 H307.20 Z M327.68,266.24 V286.72 H348.16 V266.24 H327.68 Z M348.16,266.24 V286.72 H368.64 V266.24 H348.16 Z M389.12,266.24 V286.72 H409.60 V266.24 H389.12 Z M409.60,266.24 V286.72 H430.08 V266.24 H409.60 Z M471.04,266.24 V286.72 H491.52 V266.24 H471.04 Z M0,286.72 V307.20 H20.48 V286.72 H0 Z M20.48,286.72 V307.20 H40.96 V286.72 H20.48 Z M61.44,286.72 V307.20 H81.92 V286.72 H61.44 Z M122.88,286.72 V307.20 H143.36 V286.72 H122.88 Z M143.36,286.72 V307.20 H163.84 V286.72 H143.36 Z M163.84,286.72 V307.20 H184.32 V286.72 H163.84 Z M225.28,286.72 V307.20 H245.76 V286.72 H225.28 Z M266.24,286.72 V307.20 H286.72 V286.72 H266.24 Z M327.68,286.72 V307.20 H348.16 V286.72 H327.68 Z M348.16,286.72 V307.20 H368.64 V286.72 H348.16 Z M368.64,286.72 V307.20 H389.12 V286.72 H368.64 Z M471.04,286.72 V307.20 H491.52 V286.72 H471.04 Z M491.52,286.72 V307.20 H512 V286.72 H491.52 Z M0,307.20 V327.68 H20.48 V307.20 H0 Z M20.48,307.20 V327.68 H40.96 V307.20 H20.48 Z M40.96,307.20 V327.68 H61.44 V307.20 H40.96 Z M81.92,307.20 V327.68 H102.40 V307.20 H81.92 Z M102.40,307.20 V327.68 H122.88 V307.20 H102.40 Z M143.36,307.20 V327.68 H163.84 V307.20 H143.36 Z M225.28,307.20 V327.68 H245.76 V307.20 H225.28 Z M245.76,307.20 V327.68 H266.24 V307.20 H245.76 Z M368.64,307.20 V327.68 H389.12 V307.20 H368.64 Z M430.08,307.20 V327.68 H450.56 V307.20 H430.08 Z M450.56,307.20 V327.68 H471.04 V307.20 H450.56 Z M471.04,307.20 V327.68 H491.52 V307.20 H471.04 Z M122.88,327.68 V348.16 H143.36 V327.68 H122.88 Z M143.36,327.68 V348.16 H163.84 V327.68 H143.36 Z M163.84,327.68 V348.16 H184.32 V327.68 H163.84 Z M184.32,327.68 V348.16 H204.80 V327.68 H184.32 Z M266.24,327.68 V348.16 H286.72 V327.68 H266.24 Z M327.68,327.68 V348.16 H348.16 V327.68 H327.68 Z M348.16,327.68 V348.16 H368.64 V327.68 H348.16 Z M368.64,327.68 V348.16 H389.12 V327.68 H368.64 Z M389.12,327.68 V348.16 H409.60 V327.68 H389.12 Z M409.60,327.68 V348.16 H430.08 V327.68 H409.60 Z M430.08,327.68 V348.16 H450.56 V327.68 H430.08 Z M471.04,327.68 V348.16 H491.52 V327.68 H471.04 Z M491.52,327.68 V348.16 H512 V327.68 H491.52 Z M163.84,348.16 V368.64 H184.32 V348.16 H163.84 Z M184.32,348.16 V368.64 H204.80 V348.16 H184.32 Z M245.76,348.16 V368.64 H266.24 V348.16 H245.76 Z M286.72,348.16 V368.64 H307.20 V348.16 H286.72 Z M307.20,348.16 V368.64 H327.68 V348.16 H307.20 Z M327.68,348.16 V368.64 H348.16 V348.16 H327.68 Z M409.60,348.16 V368.64 H430.08 V348.16 H409.60 Z M450.56,348.16 V368.64 H471.04 V348.16 H450.56 Z M471.04,348.16 V368.64 H491.52 V348.16 H471.04 Z M491.52,348.16 V368.64 H512 V348.16 H491.52 Z M0,368.64 V389.12 H20.48 V368.64 H0 Z M20.48,368.64 V389.12 H40.96 V368.64 H20.48 Z M40.96,368.64 V389.12 H61.44 V368.64 H40.96 Z M61.44,368.64 V389.12 H81.92 V368.64 H61.44 Z M81.92,368.64 V389.12 H102.40 V368.64 H81.92 Z M102.40,368.64 V389.12 H122.88 V368.64 H102.40 Z M122.88,368.64 V389.12 H143.36 V368.64 H122.88 Z M163.84,368.64 V389.12 H184.32 V368.64 H163.84 Z M184.32,368.64 V389.12 H204.80 V368.64 H184.32 Z M245.76,368.64 V389.12 H266.24 V368.64 H245.76 Z M266.24,368.64 V389.12 H286.72 V368.64 H266.24 Z M286.72,368.64 V389.12 H307.20 V368.64 H286.72 Z M327.68,368.64 V389.12 H348.16 V368.64 H327.68 Z M368.64,368.64 V389.12 H389.12 V368.64 H368.64 Z M409.60,368.64 V389.12 H430.08 V368.64 H409.60 Z M471.04,368.64 V389.12 H491.52 V368.64 H471.04 Z M491.52,368.64 V389.12 H512 V368.64 H491.52 Z M0,389.12 V409.60 H20.48 V389.12 H0 Z M122.88,389.12 V409.60 H143.36 V389.12 H122.88 Z M204.80,389.12 V409.60 H225.28 V389.12 H204.80 Z M225.28,389.12 V409.60 H245.76 V389.12 H225.28 Z M286.72,389.12 V409.60 H307.20 V389.12 H286.72 Z M327.68,389.12 V409.60 H348.16 V389.12 H327.68 Z M409.60,389.12 V409.60 H430.08 V389.12 H409.60 Z M430.08,389.12 V409.60 H450.56 V389.12 H430.08 Z M491.52,389.12 V409.60 H512 V389.12 H491.52 Z M0,409.60 V430.08 H20.48 V409.60 H0 Z M40.96,409.60 V430.08 H61.44 V409.60 H40.96 Z M61.44,409.60 V430.08 H81.92 V409.60 H61.44 Z M81.92,409.60 V430.08 H102.40 V409.60 H81.92 Z M122.88,409.60 V430.08 H143.36 V409.60 H122.88 Z M307.20,409.60 V430.08 H327.68 V409.60 H307.20 Z M327.68,409.60 V430.08 H348.16 V409.60 H327.68 Z M348.16,409.60 V430.08 H368.64 V409.60 H348.16 Z M368.64,409.60 V430.08 H389.12 V409.60 H368.64 Z M389.12,409.60 V430.08 H409.60 V409.60 H389.12 Z M409.60,409.60 V430.08 H430.08 V409.60 H409.60 Z M430.08,409.60 V430.08 H450.56 V409.60 H430.08 Z M450.56,409.60 V430.08 H471.04 V409.60 H450.56 Z M471.04,409.60 V430.08 H491.52 V409.60 H471.04 Z M0,430.08 V450.56 H20.48 V430.08 H0 Z M40.96,430.08 V450.56 H61.44 V430.08 H40.96 Z M61.44,430.08 V450.56 H81.92 V430.08 H61.44 Z M81.92,430.08 V450.56 H102.40 V430.08 H81.92 Z M122.88,430.08 V450.56 H143.36 V430.08 H122.88 Z M245.76,430.08 V450.56 H266.24 V430.08 H245.76 Z M266.24,430.08 V450.56 H286.72 V430.08 H266.24 Z M327.68,430.08 V450.56 H348.16 V430.08 H327.68 Z M348.16,430.08 V450.56 H368.64 V430.08 H348.16 Z M368.64,430.08 V450.56 H389.12 V430.08 H368.64 Z M389.12,430.08 V450.56 H409.60 V430.08 H389.12 Z M409.60,430.08 V450.56 H430.08 V430.08 H409.60 Z M430.08,430.08 V450.56 H450.56 V430.08 H430.08 Z M471.04,430.08 V450.56 H491.52 V430.08 H471.04 Z M0,450.56 V471.04 H20.48 V450.56 H0 Z M40.96,450.56 V471.04 H61.44 V450.56 H40.96 Z M61.44,450.56 V471.04 H81.92 V450.56 H61.44 Z M81.92,450.56 V471.04 H102.40 V450.56 H81.92 Z M122.88,450.56 V471.04 H143.36 V450.56 H122.88 Z M163.84,450.56 V471.04 H184.32 V450.56 H163.84 Z M204.80,450.56 V471.04 H225.28 V450.56 H204.80 Z M286.72,450.56 V471.04 H307.20 V450.56 H286.72 Z M430.08,450.56 V471.04 H450.56 V450.56 H430.08 Z M0,471.04 V491.52 H20.48 V471.04 H0 Z M122.88,471.04 V491.52 H143.36 V471.04 H122.88 Z M204.80,471.04 V491.52 H225.28 V471.04 H204.80 Z M225.28,471.04 V491.52 H245.76 V471.04 H225.28 Z M245.76,471.04 V491.52 H266.24 V471.04 H245.76 Z M286.72,471.04 V491.52 H307.20 V471.04 H286.72 Z M307.20,471.04 V491.52 H327.68 V471.04 H307.20 Z M348.16,471.04 V491.52 H368.64 V471.04 H348.16 Z M368.64,471.04 V491.52 H389.12 V471.04 H368.64 Z M409.60,471.04 V491.52 H430.08 V471.04 H409.60 Z M471.04,471.04 V491.52 H491.52 V471.04 H471.04 Z M491.52,471.04 V491.52 H512 V471.04 H491.52 Z M0,491.52 V512 H20.48 V491.52 H0 Z M20.48,491.52 V512 H40.96 V491.52 H20.48 Z M40.96,491.52 V512 H61.44 V491.52 H40.96 Z M61.44,491.52 V512 H81.92 V491.52 H61.44 Z M81.92,491.52 V512 H102.40 V491.52 H81.92 Z M102.40,491.52 V512 H122.88 V491.52 H102.40 Z M122.88,491.52 V512 H143.36 V491.52 H122.88 Z M184.32,491.52 V512 H204.80 V491.52 H184.32 Z M204.80,491.52 V512 H225.28 V491.52 H204.80 Z M245.76,491.52 V512 H266.24 V491.52 H245.76 Z M266.24,491.52 V512 H286.72 V491.52 H266.24 Z M286.72,491.52 V512 H307.20 V491.52 H286.72 Z M348.16,491.52 V512 H368.64 V491.52 H348.16 Z M368.64,491.52 V512 H389.12 V491.52 H368.64 Z M389.12,491.52 V512 H409.60 V491.52 H389.12 Z M409.60,491.52 V512 H430.08 V491.52 H409.60 Z M450.56,491.52 V512 H471.04 V491.52 H450.56 Z M491.52,491.52 V512 H512 V491.52 H491.52 Z "/></svg>