<svg width="27" height="28" fill="none" xmlns="http://www.w3.org/2000/svg"><path d="M8.648 18.44a1.333 1.333 0 0 0-.173 1.866 1.333 1.333 0 0 0 1.88.173 5.013 5.013 0 0 1 6.293 0 1.335 1.335 0 0 0 1.88-.173 1.333 1.333 0 0 0-.173-1.867 7.746 7.746 0 0 0-9.707 0Zm.853-5.774a1.334 1.334 0 1 0 0-2.667 1.334 1.334 0 0 0 0 2.667Zm4-12a13.333 13.333 0 1 0 0 26.666 13.333 13.333 0 0 0 0-26.666Zm0 24a10.667 10.667 0 1 1 0-21.334 10.667 10.667 0 0 1 0 21.334Zm4-14.667a1.333 1.333 0 1 0 0 2.666 1.333 1.333 0 0 0 0-2.666Z" fill="#EE9AB4" /></svg>